<mxfile host="65bd71144e">
    <diagram id="yrFKpJYf7vNWSQ8hbHw7" name="ページ1">
        <mxGraphModel dx="531" dy="803" grid="1" gridSize="10" guides="1" tooltips="1" connect="1" arrows="1" fold="1" page="1" pageScale="1" pageWidth="827" pageHeight="1169" math="0" shadow="0">
            <root>
                <mxCell id="0"/>
                <mxCell id="1" parent="0"/>
                <mxCell id="2" value="朝活アプリ" style="html=1;fillColor=none;verticalAlign=top;fontStyle=1" parent="1" vertex="1">
                    <mxGeometry x="200" y="80" width="560" height="640" as="geometry"/>
                </mxCell>
                <mxCell id="3" value="ユーザ" style="shape=umlActor;verticalLabelPosition=bottom;verticalAlign=top;html=1;fillColor=default;" parent="1" vertex="1">
                    <mxGeometry x="80" y="285" width="30" height="60" as="geometry"/>
                </mxCell>
                <mxCell id="4" value="タイムラインへ投稿する" style="ellipse;whiteSpace=wrap;html=1;fillColor=default;" parent="1" vertex="1">
                    <mxGeometry x="280" y="280" width="140" height="70" as="geometry"/>
                </mxCell>
                <mxCell id="7" value="タスクを登録する" style="ellipse;whiteSpace=wrap;html=1;fillColor=default;" parent="1" vertex="1">
                    <mxGeometry x="280" y="400" width="140" height="70" as="geometry"/>
                </mxCell>
                <mxCell id="8" value="会員登録・&lt;br&gt;ログインする" style="ellipse;whiteSpace=wrap;html=1;fillColor=default;" parent="1" vertex="1">
                    <mxGeometry x="280" y="160" width="140" height="70" as="geometry"/>
                </mxCell>
                <mxCell id="9" value="投稿へコメントする" style="ellipse;whiteSpace=wrap;html=1;fillColor=default;" parent="1" vertex="1">
                    <mxGeometry x="520" y="280" width="140" height="70" as="geometry"/>
                </mxCell>
                <mxCell id="10" value="他人の投稿へコメントする" style="ellipse;whiteSpace=wrap;html=1;fillColor=default;" parent="1" vertex="1">
                    <mxGeometry x="560" y="520" width="140" height="70" as="geometry"/>
                </mxCell>
                <mxCell id="11" value="他人の投稿へいいねする" style="ellipse;whiteSpace=wrap;html=1;fillColor=default;" parent="1" vertex="1">
                    <mxGeometry x="520" y="600" width="140" height="70" as="geometry"/>
                </mxCell>
                <mxCell id="12" value="Extends" style="endArrow=block;endSize=16;endFill=0;html=1;" parent="1" source="9" target="4" edge="1">
                    <mxGeometry width="160" relative="1" as="geometry">
                        <mxPoint x="330" y="260" as="sourcePoint"/>
                        <mxPoint x="490" y="260" as="targetPoint"/>
                    </mxGeometry>
                </mxCell>
                <mxCell id="13" value="Extends" style="endArrow=block;endSize=16;endFill=0;html=1;" parent="1" source="10" target="4" edge="1">
                    <mxGeometry width="160" relative="1" as="geometry">
                        <mxPoint x="560.0479616363234" y="288.704591882154" as="sourcePoint"/>
                        <mxPoint x="449.94406711052443" y="286.3988813422103" as="targetPoint"/>
                    </mxGeometry>
                </mxCell>
                <mxCell id="14" value="Extends" style="endArrow=block;endSize=16;endFill=0;html=1;" parent="1" source="11" target="4" edge="1">
                    <mxGeometry width="160" relative="1" as="geometry">
                        <mxPoint x="575.202372167073" y="363.2214556048624" as="sourcePoint"/>
                        <mxPoint x="434.66081666101263" y="306.8643266644051" as="targetPoint"/>
                    </mxGeometry>
                </mxCell>
                <mxCell id="15" value="" style="endArrow=none;html=1;" parent="1" source="3" target="8" edge="1">
                    <mxGeometry relative="1" as="geometry">
                        <mxPoint x="330" y="310" as="sourcePoint"/>
                        <mxPoint x="490" y="310" as="targetPoint"/>
                    </mxGeometry>
                </mxCell>
                <mxCell id="18" value="" style="endArrow=none;html=1;" parent="1" source="3" target="4" edge="1">
                    <mxGeometry relative="1" as="geometry">
                        <mxPoint x="140" y="273.57142857142844" as="sourcePoint"/>
                        <mxPoint x="316.8520378344292" y="197.77769807095865" as="targetPoint"/>
                    </mxGeometry>
                </mxCell>
                <mxCell id="19" value="" style="endArrow=none;html=1;" parent="1" source="3" target="7" edge="1">
                    <mxGeometry relative="1" as="geometry">
                        <mxPoint x="140" y="280.29411764705867" as="sourcePoint"/>
                        <mxPoint x="310.0537634487923" y="283.62850516566266" as="targetPoint"/>
                    </mxGeometry>
                </mxCell>
                <mxCell id="20" value="プロフィール登録する" style="ellipse;whiteSpace=wrap;html=1;fillColor=default;" parent="1" vertex="1">
                    <mxGeometry x="280" y="560" width="140" height="70" as="geometry"/>
                </mxCell>
                <mxCell id="21" value="" style="endArrow=none;html=1;" parent="1" source="3" target="20" edge="1">
                    <mxGeometry relative="1" as="geometry">
                        <mxPoint x="140" y="287.3529411764705" as="sourcePoint"/>
                        <mxPoint x="330.01490125987857" y="380.49750061758755" as="targetPoint"/>
                    </mxGeometry>
                </mxCell>
                <mxCell id="24" value="単純なので概念モデルは作成しない" style="shape=note;whiteSpace=wrap;html=1;backgroundOutline=1;darkOpacity=0.05;fillColor=#ffe6cc;strokeColor=#d79b00;align=left;size=33;" vertex="1" parent="1">
                    <mxGeometry x="510" y="100" width="200" height="80" as="geometry"/>
                </mxCell>
                <mxCell id="25" value="" style="endArrow=none;dashed=1;html=1;exitX=1;exitY=0;exitDx=0;exitDy=0;entryX=-0.01;entryY=0.388;entryDx=0;entryDy=0;entryPerimeter=0;" edge="1" parent="1" source="8" target="24">
                    <mxGeometry width="50" height="50" relative="1" as="geometry">
                        <mxPoint x="360" y="200" as="sourcePoint"/>
                        <mxPoint x="489.8371428571429" y="140" as="targetPoint"/>
                    </mxGeometry>
                </mxCell>
                <mxCell id="26" value="" style="endArrow=none;dashed=1;html=1;entryX=0;entryY=1;entryDx=0;entryDy=0;entryPerimeter=0;" edge="1" parent="1" source="7" target="24">
                    <mxGeometry width="50" height="50" relative="1" as="geometry">
                        <mxPoint x="409.4974746830583" y="180.25126265847086" as="sourcePoint"/>
                        <mxPoint x="518" y="141.03999999999996" as="targetPoint"/>
                    </mxGeometry>
                </mxCell>
                <mxCell id="27" value="" style="endArrow=none;dashed=1;html=1;entryX=-0.01;entryY=0.388;entryDx=0;entryDy=0;entryPerimeter=0;" edge="1" parent="1" source="20">
                    <mxGeometry width="50" height="50" relative="1" as="geometry">
                        <mxPoint x="420.0011350886504" y="440.31534177991347" as="sourcePoint"/>
                        <mxPoint x="568.71" y="179.99999999999997" as="targetPoint"/>
                    </mxGeometry>
                </mxCell>
            </root>
        </mxGraphModel>
    </diagram>
</mxfile>